<svg xmlns="http://www.w3.org/2000/svg" width="24.797" height="24.797" viewBox="0 0 24.797 24.797">
  <path id="Icon_awesome-linkedin-in" data-name="Icon awesome-linkedin-in" d="M5.551,24.8H.41V8.242H5.551ZM2.977,5.984A2.992,2.992,0,1,1,5.955,2.978,3,3,0,0,1,2.977,5.984ZM24.792,24.8h-5.13V16.738c0-1.921-.039-4.384-2.673-4.384-2.673,0-3.083,2.087-3.083,4.245v8.2H8.771V8.242H13.7V10.5h.072a5.4,5.4,0,0,1,4.864-2.673c5.2,0,6.159,3.426,6.159,7.877V24.8Z" transform="translate(0 -0.001)" fill="#b6b3c6"/>
</svg>
