<svg xmlns="http://www.w3.org/2000/svg" width="29.665" height="29.665" viewBox="0 0 29.665 29.665">
  <path id="Icon_simple-instagram" data-name="Icon simple-instagram" d="M14.832,0C10.8,0,10.3.019,8.718.089a10.937,10.937,0,0,0-3.6.69A7.264,7.264,0,0,0,2.489,2.489,7.237,7.237,0,0,0,.779,5.117a10.905,10.905,0,0,0-.69,3.6C.015,10.3,0,10.8,0,14.833s.019,4.533.089,6.115a10.944,10.944,0,0,0,.69,3.6,7.274,7.274,0,0,0,1.711,2.628,7.253,7.253,0,0,0,2.628,1.711,10.951,10.951,0,0,0,3.6.69c1.582.074,2.085.089,6.115.089s4.533-.019,6.115-.089a10.976,10.976,0,0,0,3.6-.69,7.58,7.58,0,0,0,4.338-4.339,10.944,10.944,0,0,0,.69-3.6c.074-1.582.089-2.085.089-6.115s-.019-4.533-.089-6.115a10.969,10.969,0,0,0-.69-3.6,7.28,7.28,0,0,0-1.711-2.628A7.227,7.227,0,0,0,24.548.779a10.912,10.912,0,0,0-3.6-.69C19.365.015,18.862,0,14.832,0Zm0,2.67c3.959,0,4.431.02,5.995.088a8.172,8.172,0,0,1,2.753.513A4.881,4.881,0,0,1,26.4,6.085a8.189,8.189,0,0,1,.51,2.753c.07,1.565.087,2.035.087,5.995s-.019,4.431-.091,5.995a8.347,8.347,0,0,1-.52,2.753,4.71,4.71,0,0,1-1.111,1.708A4.627,4.627,0,0,1,23.564,26.4a8.25,8.25,0,0,1-2.763.51c-1.575.07-2.038.087-6.006.087s-4.432-.019-6.006-.091a8.41,8.41,0,0,1-2.764-.52,4.593,4.593,0,0,1-1.7-1.111,4.5,4.5,0,0,1-1.112-1.706A8.418,8.418,0,0,1,2.69,20.8c-.056-1.557-.075-2.038-.075-5.987s.02-4.432.075-6.008a8.408,8.408,0,0,1,.519-2.761A4.4,4.4,0,0,1,4.321,4.337a4.387,4.387,0,0,1,1.7-1.11,8.209,8.209,0,0,1,2.745-.52c1.576-.056,2.039-.074,6.006-.074l.056.037Zm0,4.546a7.616,7.616,0,1,0,7.616,7.616A7.616,7.616,0,0,0,14.832,7.216Zm0,12.561a4.944,4.944,0,1,1,4.944-4.944A4.943,4.943,0,0,1,14.832,19.777Zm9.7-12.861a1.78,1.78,0,1,1-1.78-1.779A1.781,1.781,0,0,1,24.53,6.916Z" fill="#aaa6bc" opacity="0.85"/>
</svg>
