<svg xmlns="http://www.w3.org/2000/svg" width="1428.46" height="945.85" viewBox="0 0 1428.46 945.85">
  <g id="Group_2519" data-name="Group 2519" transform="translate(884.782 689.054)">
    <g id="Shape" transform="matrix(0.996, -0.087, 0.087, 0.996, -884.24, -588.192)" opacity="0.08" style="isolation: isolate">
      <path id="Path_15" data-name="Path 15" d="M5275.55,1748.948c-52.5,121.548-10.562,280.961,93.666,356.065,57.356,41.33,124.738,50,183.116,23.554l.156-.1q6.345-2.875,12.508-6.279c40.6-18.429,176.7-65.19,369.318,26.178,29.491,14,52.092,21.344,69.115,23.57,173.684,70.088,348.805-41.178,391.139-248.52,35.682-174.746-34.351-367.138-168.923-464.07-28.219-20.327-57.154-42.611-86.75-52.406,0,0-383.541-217.747-802.255,258.918C5310.916,1686.877,5290.012,1715.308,5275.55,1748.948Z" transform="translate(-5252.917 -1357.308)" fill="#accaf0" stroke="rgba(0,0,0,0)" stroke-width="1"/>
    </g>
    <g id="Shape-2" data-name="Shape" transform="matrix(0.996, -0.087, 0.087, 0.996, -637.24, -573.192)" opacity="0.08" style="isolation: isolate">
      <g id="Group_2518" data-name="Group 2518">
        <path id="Path_15-2" data-name="Path 15" d="M5275.55,1748.948c-52.5,121.548-10.562,280.961,93.666,356.065,57.356,41.33,124.738,50,183.116,23.554l.156-.1q6.345-2.875,12.508-6.279c40.6-18.429,176.7-65.19,369.318,26.178,29.491,14,52.092,21.344,69.115,23.57,173.684,70.088,348.805-41.178,391.139-248.52,35.682-174.746-34.351-367.138-168.923-464.07-28.219-20.327-57.154-42.611-86.75-52.406,0,0-383.541-217.747-802.255,258.918C5310.916,1686.877,5290.012,1715.308,5275.55,1748.948Z" transform="translate(-5291.509 -1363.696)" fill="#accaf0" stroke="rgba(0,0,0,0)" stroke-width="1"/>
      </g>
    </g>
  </g>
</svg>
