<svg xmlns="http://www.w3.org/2000/svg" width="714" height="660" viewBox="0 0 714 660">
  <g id="Group_2519" data-name="Group 2519" transform="translate(-949 -206)">
    <g id="Group_2518" data-name="Group 2518">
      <g id="Group_113" data-name="Group 113" transform="translate(1013.296 212.433)">
        <rect id="Rectangle_2014" data-name="Rectangle 2014" width="405" height="391" rx="19" transform="translate(7.704 65.567)" fill="#200a82" opacity="0.06" style="mix-blend-mode: multiply;isolation: isolate"/>
        <rect id="Rectangle_2015" data-name="Rectangle 2015" width="388" height="433" rx="19" transform="translate(-0.296 -0.433)" fill="#fff"/>
      </g>
      <g id="Group_114" data-name="Group 114" transform="translate(1178.493 337.055)">
        <rect id="Rectangle_2014-2" data-name="Rectangle 2014" width="405" height="391" rx="19" transform="translate(7.507 65.945)" fill="#200a82" opacity="0.06" style="mix-blend-mode: multiply;isolation: isolate"/>
        <rect id="Rectangle_2015-2" data-name="Rectangle 2015" width="388" height="433" rx="19" transform="translate(-0.493 -0.055)" fill="#fff"/>
      </g>
      <path id="Path_528" data-name="Path 528" d="M197.082,232.555a20.3,20.3,0,0,0-5.9-14.456l-14.3-14.377-14.3-14.377-14.3,14.377-14.3,14.377-14.3,14.377,14.3,14.377,14.3-14.377,14.3-14.377.065.066,14.239,14.311-14.3,14.377.019.02h0l-.019-.02-14.3,14.377-14.3,14.377-14.3-14.377-14.3-14.377-14.3-14.377,14.328-14.4,14.277-14.349,8.9-8.944,4.5,7.477,7.705-34.109-33.765,8.726,6.853,3.933-8.5,8.54-14.3,14.377-3.021,3.034-.021.021c-3.266,3.02-5.875,5.678-7.942,7.952-5.17,5.685-6.954,8.944-7.161,9.338l-.021.042a20.218,20.218,0,0,0,3.967,22.637l14.2,14.484,14.3,14.377,14.3,14.377,14.3,14.377,14.3-14.377,14.3-14.377,14.3-14.377,14.3-14.377-.01-.014A20.169,20.169,0,0,0,197.082,232.555Z" transform="translate(1246.549 329.273)" fill="#e9b640"/>
    </g>
  </g>
</svg>
