<svg xmlns="http://www.w3.org/2000/svg" width="1954.649" height="1954.649" viewBox="0 0 1954.649 1954.649">
  <g id="Group_2519" data-name="Group 2519" transform="translate(-803.566 865.208)">
    <g id="Shape" transform="translate(2757.482 -42.882) rotate(135)" opacity="0.08" style="isolation: isolate">
      <path id="Path_15" data-name="Path 15" d="M5284.388,1901.875c-73,169.01-14.686,390.671,130.241,495.1,79.752,57.468,173.446,69.519,254.619,32.752l.217-.136q8.823-4,17.393-8.731c56.454-25.625,245.7-90.646,513.529,36.4,41.007,19.462,72.433,29.678,96.1,32.774,241.5,97.457,485.006-57.257,543.871-345.562,49.614-242.98-47.765-510.5-234.885-645.28-39.238-28.265-79.472-59.25-120.625-72.87,0,0-533.306-302.773-1115.519,360.02C5333.563,1815.567,5304.5,1855.1,5284.388,1901.875Z" transform="translate(-5252.917 -1357.308)" fill="#accaf0" stroke="rgba(0,0,0,0)" stroke-width="1"/>
    </g>
    <g id="Shape-2" data-name="Shape" transform="matrix(0.996, -0.087, 0.087, 0.996, 959.759, -2.192)" opacity="0.08" style="isolation: isolate">
      <path id="Path_15-2" data-name="Path 15" d="M5275.55,1748.948c-52.5,121.548-10.562,280.961,93.666,356.065,57.356,41.33,124.738,50,183.116,23.554l.156-.1q6.345-2.875,12.508-6.279c40.6-18.429,176.7-65.19,369.318,26.178,29.491,14,52.092,21.344,69.115,23.57,173.684,70.088,348.805-41.178,391.139-248.52,35.682-174.746-34.351-367.138-168.923-464.07-28.219-20.327-57.154-42.611-86.75-52.406,0,0-383.541-217.747-802.255,258.918C5310.916,1686.877,5290.012,1715.308,5275.55,1748.948Z" transform="translate(-5252.917 -1357.308)" fill="#accaf0" stroke="rgba(0,0,0,0)" stroke-width="1"/>
    </g>
  </g>
</svg>
