<svg xmlns="http://www.w3.org/2000/svg" width="29.665" height="24.094" viewBox="0 0 29.665 24.094">
  <path id="Icon_awesome-twitter" data-name="Icon awesome-twitter" d="M26.616,9.385c.019.264.019.527.019.791,0,8.037-6.117,17.3-17.3,17.3A17.181,17.181,0,0,1,0,24.745a12.576,12.576,0,0,0,1.468.075,12.176,12.176,0,0,0,7.548-2.6,6.091,6.091,0,0,1-5.685-4.216A7.667,7.667,0,0,0,4.48,18.1a6.43,6.43,0,0,0,1.6-.207A6.081,6.081,0,0,1,1.2,11.926v-.075a6.123,6.123,0,0,0,2.748.772A6.089,6.089,0,0,1,2.07,4.491a17.282,17.282,0,0,0,12.536,6.362,6.863,6.863,0,0,1-.151-1.393A6.086,6.086,0,0,1,24.978,5.3a11.97,11.97,0,0,0,3.859-1.468,6.063,6.063,0,0,1-2.673,3.35,12.188,12.188,0,0,0,3.5-.941,13.069,13.069,0,0,1-3.049,3.143Z" transform="translate(0 -3.381)" fill="#aaa6bc" opacity="0.85"/>
</svg>
