<svg xmlns="http://www.w3.org/2000/svg" width="36.146" height="25.415" viewBox="0 0 36.146 25.415">
  <path id="Icon_awesome-youtube" data-name="Icon awesome-youtube" d="M36.441,8.477a4.542,4.542,0,0,0-3.2-3.216C30.426,4.5,19.123,4.5,19.123,4.5S7.82,4.5,5,5.26a4.542,4.542,0,0,0-3.2,3.216c-.755,2.837-.755,8.757-.755,8.757s0,5.919.755,8.757A4.474,4.474,0,0,0,5,29.155c2.819.76,14.122.76,14.122.76s11.3,0,14.122-.76a4.474,4.474,0,0,0,3.2-3.165c.755-2.837.755-8.757.755-8.757s0-5.919-.755-8.757ZM15.426,22.608V11.859l9.447,5.375-9.447,5.374Z" transform="translate(-1.05 -4.5)" fill="#b6b3c6"/>
</svg>
